<svg width="202" height="55" viewBox="0 0 202 55" fill="none" xmlns="http://www.w3.org/2000/svg">
<g id="Logo tracsa energ&#195;&#173;a_header" clip-path="url(#clip0_1387_5044)">
<path id="Vector" d="M202 0H0V55H202V0Z" fill="white"/>
<path id="Vector_2" d="M150.257 2.52222H2.48682V52.4781H150.257V2.52222Z" fill="#FFCC00"/>
<path id="Vector_3" d="M199.513 2.52222H150.257V52.4781H199.513V2.52222Z" fill="black"/>
<path id="Vector_4" d="M166.707 35.0179C167.568 34.2418 167.759 33.3688 167.759 32.5928V29.1978H163.073V33.8538C163.073 34.5329 162.499 35.0179 161.925 35.0179C161.255 35.0179 160.777 34.4359 160.777 33.8538V20.6616C160.777 19.9826 161.255 19.4976 161.925 19.4976C162.594 19.4976 163.073 20.0796 163.073 20.6616V25.3177H167.759V20.4676C167.759 17.7515 166.038 15.5205 161.829 15.5205C157.525 15.5205 155.899 17.7515 155.899 20.4676V34.2418C155.899 36.9579 158.004 38.8979 160.682 38.8979H162.116L166.707 35.0179Z" fill="white"/>
<path id="Vector_5" d="M185.358 35.5997V20.4675H182.106V16.0054H193.966V20.4675H190.714V38.8978H189.279L185.358 35.5997Z" fill="white"/>
<path id="Vector_6" d="M187.558 38.8978L175.985 29.1006L164.125 38.8978H187.558Z" fill="#FFCC00"/>
<path id="Vector_7" d="M187.558 38.8978L175.985 29.1006L164.125 38.8978H187.558Z" fill="#FFCC00"/>
<path id="Vector_8" d="M179.332 16.0054H172.733L168.907 33.4657L176.081 27.6456L183.541 33.9507L179.332 16.0054ZM174.741 26.4816L175.985 19.8854L177.228 26.4816H174.741Z" fill="white"/>
<path id="Vector_9" d="M194.827 17.1694C194.827 16.3934 195.496 15.7144 196.261 15.7144C197.026 15.7144 197.696 16.3934 197.696 17.1694C197.696 17.9454 197.026 18.6244 196.261 18.6244C195.496 18.6244 194.827 18.0424 194.827 17.1694ZM197.409 17.1694C197.409 16.4904 196.931 16.0054 196.261 16.0054C195.592 16.0054 195.114 16.4904 195.114 17.1694C195.114 17.8484 195.592 18.3334 196.261 18.3334C196.931 18.4304 197.409 17.8484 197.409 17.1694ZM195.974 17.2664V17.9454H195.687V16.2964H196.261C196.548 16.2964 196.835 16.3934 196.835 16.7814C196.835 16.9754 196.74 17.1694 196.453 17.1694C196.644 17.1694 196.74 17.3634 196.74 17.4604C196.74 17.6544 196.74 17.7514 196.835 17.9454H196.548C196.548 17.8484 196.548 17.7514 196.453 17.6544C196.453 17.5574 196.453 17.3634 196.357 17.2664C196.261 17.1694 196.166 17.1694 196.07 17.1694H195.974V17.2664ZM196.261 17.0724C196.548 17.0724 196.548 16.9754 196.548 16.8784C196.548 16.7814 196.453 16.6844 196.261 16.6844H195.974V17.0724H196.261Z" fill="white"/>
<path id="Vector_10" d="M27.4497 12.6101H40.5529V16.2962H36.1533V32.5925H31.5624V16.2962H27.4497V12.6101Z" fill="#231F20"/>
<path id="Vector_11" d="M48.0133 16.1022C50.3088 16.0052 51.2652 16.1993 51.2652 18.5273C51.2652 19.7883 50.9783 21.0493 49.6393 21.0493H48.0133V16.1022ZM48.0133 24.4444H49.5436C50.5957 24.5414 50.9783 25.3174 51.1696 26.5784C51.2652 27.8395 51.1696 29.6825 51.2652 31.4285C51.2652 31.8165 51.3609 32.2045 51.5522 32.5925H56.6213V32.3015C56.43 32.1075 56.2387 31.9135 56.1431 31.6225C55.8561 30.3615 55.8561 26.8694 55.7605 25.3174C55.6648 23.9594 54.8041 22.9894 53.465 22.6984V22.6014C55.3779 21.7284 55.9518 20.1763 55.9518 18.0423C55.9518 14.0652 54.0389 12.5132 50.3088 12.5132H43.5181V32.4955H48.109V24.4444H48.0133Z" fill="#231F20"/>
<path id="Vector_12" d="M68.2897 26.0934H65.3248L66.7594 17.1692H66.9507L68.2897 26.0934ZM64.177 32.5925L64.7509 29.3914H68.8636L69.6287 32.5925H74.7935L70.0113 12.6101H63.8901L59.1079 32.5925H64.177Z" fill="#231F20"/>
<path id="Vector_13" d="M118.981 26.0934H116.016L117.451 17.1692H117.546L118.981 26.0934ZM114.868 32.5925L115.442 29.3914H119.459L120.224 32.5925H125.389L120.607 12.6101H114.486L109.704 32.5925H114.868Z" fill="#231F20"/>
<path id="Vector_14" d="M85.5055 19.5943V18.3333C85.5055 16.5872 84.836 15.7142 83.8795 15.7142C82.3492 15.7142 81.9666 16.4902 81.9666 17.7513V27.6454C81.9666 28.8095 82.4449 29.3915 83.7839 29.3915C85.5055 29.3915 85.6011 27.7424 85.6011 26.4814V24.6384H90.6703V27.0634C90.6703 30.4585 88.5661 32.8835 83.4013 32.8835C78.8104 32.8835 76.9932 30.5555 76.9932 26.4814V18.3333C76.9932 13.9682 79.0973 11.9312 83.7839 11.9312C88.0879 11.9312 90.6703 13.6772 90.6703 17.6543V19.3033H85.5055V19.5943Z" fill="#231F20"/>
<path id="Vector_15" d="M98.8002 25.6085V27.3545C98.8002 28.5185 99.1828 29.4886 100.904 29.4886C102.148 29.4886 102.722 28.5185 102.722 27.4515C102.722 25.8025 101.191 25.1235 99.7566 24.3475C98.1307 23.5715 96.7917 22.7954 95.7396 21.7284C94.7832 20.7584 94.2093 19.4974 94.2093 17.7513C94.2093 13.9683 96.7917 12.1252 100.809 12.1252C105.4 12.1252 107.791 14.8413 107.504 18.6244H102.626C102.53 17.4603 102.626 15.9083 100.904 15.7143C99.8523 15.6173 99.1828 16.1993 99.0871 17.0723C98.8959 18.2364 99.661 18.9154 100.713 19.4974C102.722 20.6614 104.443 21.3404 105.687 22.3104C106.93 23.2804 107.599 24.6385 107.599 27.0635C107.599 30.8466 105.208 32.9806 100.809 32.9806C95.9309 32.9806 93.9224 30.5556 93.9224 27.9365V25.5115H98.8002V25.6085Z" fill="#231F20"/>
<path id="Vector_16" d="M36.6318 42.4867V33.8535H41.3184V35.1145H38.4491V37.2486H41.0315V38.6066H38.4491V41.1286H41.414V42.4867H36.6318Z" fill="#231F20"/>
<path id="Vector_17" d="M48.6826 42.4867V33.8535H51.0737L53.3692 39.7706V33.8535H55.0908V42.4867H52.6997L50.4042 36.0846V42.4867H48.6826Z" fill="#231F20"/>
<path id="Vector_18" d="M62.7422 42.4867V33.8535H67.4287V35.1145H64.5594V37.2486H67.1418V38.6066H64.5594V41.1286H67.5244V42.4867H62.7422Z" fill="#231F20"/>
<path id="Vector_19" d="M76.515 42.4867H74.6978V33.8535H78.0453C78.6192 33.8535 79.193 34.0475 79.48 34.4355C79.7669 34.8235 80.0538 35.4055 80.0538 36.0846C80.0538 36.6666 79.9582 37.1516 79.6712 37.4426C79.3843 37.8306 79.0017 38.0246 78.4279 38.1216C78.5235 38.1216 78.6192 38.1216 78.8104 38.2186C79.0017 38.2186 79.193 38.3156 79.2887 38.4126C79.48 38.5096 79.5756 38.7036 79.7669 38.8976C79.8625 39.0916 79.9582 39.3826 79.9582 39.7706C79.9582 39.8676 79.9582 40.0616 79.9582 40.3526C79.9582 40.6436 79.9582 40.8376 79.9582 41.1286C79.9582 41.4197 79.9582 41.6137 80.0538 41.9047C80.0538 42.0987 80.1495 42.2927 80.1495 42.3897H78.4279C78.3322 42.0987 78.2366 41.8077 78.2366 41.5167C78.2366 41.2256 78.2366 40.9346 78.2366 40.6436C78.2366 40.3526 78.2366 40.1586 78.2366 39.8676C78.2366 39.6736 78.2366 39.4796 78.1409 39.2856C78.0453 39.0916 77.9497 38.9946 77.7584 38.8976C77.5671 38.8006 77.2801 38.7036 76.9932 38.7036H76.515V42.4867ZM76.515 37.5396H77.2801C77.4714 37.5396 77.5671 37.5396 77.7584 37.4426C77.854 37.3456 77.9496 37.2486 78.0453 37.1516C78.1409 37.0546 78.1409 36.8606 78.2366 36.7636C78.2366 36.5696 78.2366 36.4726 78.2366 36.3756C78.2366 35.9876 78.1409 35.6965 77.9496 35.5025C77.7584 35.3085 77.5671 35.2115 77.2801 35.2115H76.515V37.5396Z" fill="#231F20"/>
<path id="Vector_20" d="M91.4357 36.4728C91.4357 36.2788 91.4357 36.0848 91.4357 35.8908C91.4357 35.6968 91.34 35.5028 91.34 35.4058C91.2444 35.3088 91.1487 35.1148 91.0531 35.1148C90.9575 35.0178 90.7662 35.0178 90.4792 35.0178C90.1923 35.0178 90.001 35.1148 89.8097 35.3088C89.6184 35.5028 89.5228 35.6968 89.5228 35.9878C89.4272 36.2788 89.4272 36.6668 89.4272 37.0548C89.4272 37.4428 89.4272 37.8308 89.4272 38.2188C89.4272 38.8978 89.4272 39.4799 89.5228 39.8679C89.5228 40.2559 89.6185 40.6439 89.7141 40.8379C89.8097 41.0319 89.9054 41.2259 90.0967 41.3229C90.288 41.4199 90.4792 41.4199 90.7662 41.4199C90.9575 41.4199 91.0531 41.4199 91.2444 41.4199C91.4357 41.4199 91.5313 41.3229 91.7226 41.3229V39.3828H90.7662V38.0248H93.5399V42.3899C93.4442 42.3899 93.2529 42.4869 93.0616 42.4869C92.8703 42.4869 92.6791 42.5839 92.3921 42.5839C92.2008 42.5839 91.9139 42.6809 91.7226 42.6809C91.5313 42.6809 91.2444 42.6809 91.1488 42.6809C90.3836 42.6809 89.8097 42.5839 89.3315 42.3899C88.8533 42.1959 88.5664 42.0019 88.2794 41.6139C88.0881 41.2259 87.8969 40.7409 87.8012 40.1589C87.7056 39.5769 87.7056 38.8978 87.7056 38.0248C87.7056 37.4428 87.7056 36.9578 87.8012 36.3758C87.8012 35.8908 87.9925 35.4058 88.1838 34.9208C88.3751 34.5328 88.662 34.1448 89.0446 33.9508C89.4272 33.6597 90.001 33.5627 90.7662 33.5627C91.2444 33.5627 91.627 33.6597 91.9139 33.7567C92.2965 33.8538 92.5834 34.0478 92.7747 34.3388C93.0616 34.5328 93.1573 34.8238 93.3486 35.2118C93.4442 35.5998 93.5398 35.9878 93.4442 36.3758H91.4357V36.4728Z" fill="#231F20"/>
<path id="Vector_21" d="M102.722 33.7566H100.904V42.3897H102.722V33.7566Z" fill="#231F20"/>
<path id="Vector_22" d="M109.704 42.4867L112.095 33.8535H114.486L116.781 42.4867H114.868L114.39 40.5466H111.903L111.425 42.4867H109.704ZM113.147 35.5025L112.286 39.2856H114.008L113.147 35.5025Z" fill="#231F20"/>
</g>
<defs>
<clipPath id="clip0_1387_5044">
<rect width="202" height="55" fill="white"/>
</clipPath>
</defs>
</svg>
